{
  "accessors": [
    {
      "bufferView": 2,
      "componentType": 5126,
      "count": 1390,
      "max": [
        21.241752624511719,
        22.832374572753906,
        91.480087280273438
      ],
      "min": [
        -20.858268737792969,
        -22.700006484985352,
        3.9999999899009708e-06
      ],
      "type": "VEC3"
    },
    {
      "bufferView": 2,
      "byteOffset": 16680,
      "componentType": 5126,
      "count": 1390,
      "max": [
        1,
        1,
        1
      ],
      "min": [
        -1,
        -1,
        -1
      ],
      "type": "VEC3"
    },
    {
      "bufferView": 3,
      "componentType": 5126,
      "count": 1390,
      "max": [
        1,
        1,
        1,
        1
      ],
      "min": [
        -1,
        -1,
        -1,
        -1
      ],
      "type": "VEC4"
    },
    {
      "bufferView": 1,
      "componentType": 5126,
      "count": 1390,
      "max": [
        0.99802500009536743,
        0.99483799934387207
      ],
      "min": [
        0.0019720001146197319,
        0.0019729998894035816
      ],
      "type": "VEC2"
    },
    {
      "bufferView": 0,
      "componentType": 5125,
      "count": 2970,
      "max": [
        1389
      ],
      "min": [
        0
      ],
      "type": "SCALAR"
    }
  ],
  "asset": {
    "extras": {
      "author": "Interiors3D (https://sketchfab.com/Interiors3D)",
      "license": "CC-BY-4.0 (http://creativecommons.org/licenses/by/4.0/)",
      "source": "https://sketchfab.com/3d-models/hmh000-38b29ca8ed68487690f7c91476aa1282",
      "title": "HMH000"
    },
    "generator": "Sketchfab-9.97.0",
    "version": "2.0"
  },
  "bufferViews": [
    {
      "buffer": 0,
      "byteLength": 11880,
      "byteOffset": 0,
      "name": "floatBufferViews",
      "target": 34963
    },
    {
      "buffer": 0,
      "byteLength": 11120,
      "byteOffset": 11880,
      "byteStride": 8,
      "name": "floatBufferViews",
      "target": 34962
    },
    {
      "buffer": 0,
      "byteLength": 33360,
      "byteOffset": 23000,
      "byteStride": 12,
      "name": "floatBufferViews",
      "target": 34962
    },
    {
      "buffer": 0,
      "byteLength": 22240,
      "byteOffset": 56360,
      "byteStride": 16,
      "name": "floatBufferViews",
      "target": 34962
    }
  ],
  "buffers": [
    {
      "byteLength": 78600,
      "uri": "scene.bin"
    }
  ],
  "images": [
    {
      "uri": "textures/Brocante_baseColor.jpeg"
    },
    {
      "uri": "textures/Brocante_metallicRoughness.png"
    },
    {
      "uri": "textures/Brocante_normal.png"
    }
  ],
  "materials": [
    {
      "doubleSided": true,
      "name": "Brocante",
      "normalTexture": {
        "index": 2,
        "scale": 0.10000000000000001,
        "texCoord": 0
      },
      "pbrMetallicRoughness": {
        "baseColorFactor": [
          0.80000000000000004,
          0.80000000000000004,
          0.80000000000000004,
          1
        ],
        "baseColorTexture": {
          "index": 0,
          "texCoord": 0
        },
        "metallicFactor": 0,
        "metallicRoughnessTexture": {
          "index": 1,
          "texCoord": 0
        },
        "roughnessFactor": 1
      }
    }
  ],
  "meshes": [
    {
      "primitives": [
        {
          "attributes": {
            "NORMAL": 1,
            "POSITION": 0,
            "TANGENT": 2,
            "TEXCOORD_0": 3
          },
          "indices": 4,
          "material": 0,
          "mode": 4
        }
      ]
    }
  ],
  "nodes": [
    {
      "children": [
        1
      ],
      "name": "RootNode (gltf orientation matrix)",
      "rotation": [
        -0.70710678118654746,
        -0,
        -0,
        0.70710678118654757
      ]
    },
    {
      "children": [
        2
      ],
      "name": "RootNode (model correction matrix)"
    },
    {
      "children": [
        3
      ],
      "name": "W53- HMH000 - Sketchfab - mesh.obj.cleaner.materialmerger.gles"
    },
    {
      "mesh": 0,
      "name": ""
    }
  ],
  "samplers": [
    {
      "magFilter": 9729,
      "minFilter": 9987,
      "wrapS": 10497,
      "wrapT": 10497
    }
  ],
  "scene": 0,
  "scenes": [
    {
      "name": "OSG_Scene",
      "nodes": [
        0
      ]
    }
  ],
  "textures": [
    {
      "sampler": 0,
      "source": 0
    },
    {
      "sampler": 0,
      "source": 1
    },
    {
      "sampler": 0,
      "source": 2
    }
  ]
}

